# xmcd CD database file
#
# Track frame offsets:
#	150
#	19157
#	34712
#	52042
#	68198
#	85205
#	99627
#	123252
#	139420
#	158747
#	176415
#	194535
#	215422
#	234459
#	256002
#	282032
#
# Disc length: 4682 seconds
#
# Revision: 4
# Processed by: cddbd v1.5.2PL0 Copyright (c) Steve Scherf et al.
# Submitted via: CDex 1.51
#
DISCID=de124810
DTITLE=Brantley Gilbert - Halfway To Heaven (Deluxe)
DYEAR=2011
DGENRE=Country
TTITLE0=Brantley Gilbert - Hell On Wheels
TTITLE1=Brantley Gilbert - Bending The Rules And Breaking The Law
TTITLE2=Brantley Gilbert - Back In The Day
TTITLE3=Brantley Gilbert - My Kind Of Crazy
TTITLE4=Brantley Gilbert - Kick It In The Sticks
TTITLE5=Brantley Gilbert - Halfway To Heaven
TTITLE6=Brantley Gilbert - Saving Amy
TTITLE7=Brantley Gilbert - Country Must Be Country Wide
TTITLE8=Brantley Gilbert - Take It Outside
TTITLE9=Brantley Gilbert - Them Boys
TTITLE10=Brantley Gilbert - Fall Into Me
TTITLE11=Brantley Gilbert feat. Colt Ford - Dirt Road Anthem
TTITLE12=Brantley Gilbert - More Than The Miles
TTITLE13=Brantley Gilbert - You Don't Know Her LIke I Do
TTITLE14=Brantley Gilbert - Hell On An Angel
TTITLE15=Data Track
EXTD=YEAR: 2011
EXTT0=
EXTT1=
EXTT2=
EXTT3=
EXTT4=
EXTT5=
EXTT6=
EXTT7=
EXTT8=
EXTT9=
EXTT10=
EXTT11=
EXTT12=
EXTT13=
EXTT14=
EXTT15=
PLAYORDER=
